<svg width="23" height="24" viewBox="0 0 23 24" fill="none" xmlns="http://www.w3.org/2000/svg">
<path d="M17.2071 3.5C16.9817 3.5 16.7655 3.58955 16.6061 3.74896C16.4467 3.90837 16.3571 4.12457 16.3571 4.35V10.6036L4.275 3.62993C4.14589 3.55539 3.99945 3.51611 3.85037 3.51605C3.70129 3.51598 3.55481 3.55513 3.42564 3.62956C3.29647 3.70399 3.18914 3.81108 3.11443 3.94009C3.03972 4.0691 3.00026 4.21549 3 4.36457V19.6342C2.99983 19.7835 3.03899 19.9302 3.11352 20.0595C3.18806 20.1889 3.29534 20.2963 3.42459 20.371C3.55383 20.4458 3.70048 20.4851 3.84976 20.4852C3.99905 20.4852 4.14571 20.4459 4.275 20.3713L16.3571 13.3952V19.65C16.3571 19.8754 16.4467 20.0916 16.6061 20.251C16.7655 20.4104 16.9817 20.5 17.2071 20.5H19.15C19.3754 20.5 19.5916 20.4104 19.751 20.251C19.9104 20.0916 20 19.8754 20 19.65V4.35C20 4.12457 19.9104 3.90837 19.751 3.74896C19.5916 3.58955 19.3754 3.5 19.15 3.5H17.2071Z" fill="white"/>
</svg>
