<svg width="24" height="24" viewBox="0 0 24 24" fill="none" xmlns="http://www.w3.org/2000/svg">
<path d="M5.79286 4C6.01829 4 6.23449 4.08955 6.3939 4.24896C6.5533 4.40837 6.64286 4.62457 6.64286 4.85V11.1036L18.725 4.12871C18.8542 4.05412 19.0008 4.01485 19.1499 4.01484C19.2991 4.01482 19.4457 4.05408 19.5749 4.12865C19.7041 4.20322 19.8114 4.31048 19.886 4.43966C19.9606 4.56884 20 4.71539 20 4.86457V20.1342C20.0002 20.2835 19.961 20.4302 19.8865 20.5595C19.8119 20.6889 19.7047 20.7963 19.5754 20.871C19.4462 20.9458 19.2995 20.9851 19.1502 20.9852C19.001 20.9852 18.8543 20.9459 18.725 20.8713L6.64286 13.8952V20.15C6.64286 20.3754 6.5533 20.5916 6.3939 20.751C6.23449 20.9104 6.01829 21 5.79286 21H3.85C3.62457 21 3.40837 20.9104 3.24896 20.751C3.08955 20.5916 3 20.3754 3 20.15V4.85C3 4.62457 3.08955 4.40837 3.24896 4.24896C3.40837 4.08955 3.62457 4 3.85 4H5.79286Z" fill="white"/>
</svg>
