<svg width="24" height="24" viewBox="0 0 24 24" fill="none" xmlns="http://www.w3.org/2000/svg">
<path d="M5.7 3C5.51435 3 5.3363 3.07375 5.20503 3.20503C5.07375 3.3363 5 3.51435 5 3.7V20.3C5 20.4857 5.07375 20.6637 5.20503 20.795C5.3363 20.9263 5.51435 21 5.7 21H8.3C8.48565 21 8.6637 20.9263 8.79497 20.795C8.92625 20.6637 9 20.4857 9 20.3V3.7C9 3.51435 8.92625 3.3363 8.79497 3.20503C8.6637 3.07375 8.48565 3 8.3 3H5.7ZM15.7 3C15.5143 3 15.3363 3.07375 15.205 3.20503C15.0738 3.3363 15 3.51435 15 3.7V20.3C15 20.4857 15.0738 20.6637 15.205 20.795C15.3363 20.9263 15.5143 21 15.7 21H18.3C18.4857 21 18.6637 20.9263 18.795 20.795C18.9263 20.6637 19 20.4857 19 20.3V3.7C19 3.51435 18.9263 3.3363 18.795 3.20503C18.6637 3.07375 18.4857 3 18.3 3H15.7Z" fill="white"/>
</svg>
