<svg width="11" height="11" viewBox="0 0 11 11" fill="none" xmlns="http://www.w3.org/2000/svg">
<path fill-rule="evenodd" clip-rule="evenodd" d="M5.5 1C7.98363 1 10 3.01637 10 5.5C10 7.98363 7.98363 10 5.5 10C3.01637 10 1 7.98363 1 5.5C1 3.01637 3.01637 1 5.5 1ZM5.5 1.375C7.77663 1.375 9.625 3.22337 9.625 5.5C9.625 7.77663 7.77663 9.625 5.5 9.625C3.22337 9.625 1.375 7.77663 1.375 5.5C1.375 3.22337 3.22337 1.375 5.5 1.375ZM5.5 5.5H7.75V5.875H5.125V2.5H5.5V5.5Z" fill="black" fill-opacity="0.7" stroke="black" stroke-opacity="0.7" stroke-width="0.3"/>
</svg>
